<svg viewBox="0 0 80 92" fill="none" xmlns="http://www.w3.org/2000/svg">
<g filter="url(#filter0_dd)">
<path d="M22.225 31.4563C21.8687 35.2563 21.6187 41.9813 23.8625 44.8438C23.8625 44.8438 22.8062 37.4563 32.275 28.1875C36.0875 24.4563 36.9687 19.3813 35.6375 15.575C34.8812 13.4188 33.5 11.6375 32.3 10.3938C31.6 9.66253 32.1375 8.45628 33.1562 8.50003C39.3187 8.77503 49.3062 10.4875 53.55 21.1375C55.4125 25.8125 55.55 30.6438 54.6625 35.5563C54.1 38.6938 52.1 45.6688 56.6625 46.525C59.9187 47.1375 61.4937 44.55 62.2 42.6875C62.4937 41.9125 63.5125 41.7188 64.0625 42.3375C69.5625 48.5938 70.0312 55.9625 68.8937 62.3063C66.6937 74.5688 54.275 83.4938 41.9375 83.4938C26.525 83.4938 14.2562 74.675 11.075 58.7125C9.79374 52.2688 10.4437 39.5188 20.3812 30.5188C21.1187 29.8438 22.325 30.4438 22.225 31.4563V31.4563Z" fill="url(#paint0_radial)"/>
<path d="M47.5687 54.3874C41.8874 47.0749 44.4312 38.7312 45.8249 35.4062C46.0124 34.9687 45.5124 34.5562 45.1187 34.8249C42.6749 36.4874 37.6687 40.3999 35.3374 45.9062C32.1812 53.3499 32.4062 56.9937 34.2749 61.4437C35.3999 64.125 34.0937 64.6937 33.4374 64.7937C32.7999 64.8937 32.2124 64.4687 31.7437 64.0249C30.3952 62.7303 29.4342 61.0854 28.9687 59.275C28.8687 58.8875 28.3624 58.7812 28.1312 59.1C26.3812 61.5187 25.4749 65.4 25.4312 68.1437C25.2937 76.625 32.2999 83.5 40.7749 83.5C51.4562 83.5 59.2374 71.6875 53.0999 61.8125C51.3187 58.9375 49.6437 57.0562 47.5687 54.3874Z" fill="url(#paint1_radial)"/>
</g>
<defs>
<filter id="filter0_dd" x="-4" y="-2" width="88" height="96" filterUnits="userSpaceOnUse" color-interpolation-filters="sRGB">
<feFlood flood-opacity="0" result="BackgroundImageFix"/>
<feColorMatrix in="SourceAlpha" type="matrix" values="0 0 0 0 0 0 0 0 0 0 0 0 0 0 0 0 0 0 127 0"/>
<feOffset dy="4"/>
<feGaussianBlur stdDeviation="2"/>
<feColorMatrix type="matrix" values="0 0 0 0 0 0 0 0 0 0 0 0 0 0 0 0 0 0 0.25 0"/>
<feBlend mode="normal" in2="BackgroundImageFix" result="effect1_dropShadow"/>
<feColorMatrix in="SourceAlpha" type="matrix" values="0 0 0 0 0 0 0 0 0 0 0 0 0 0 0 0 0 0 127 0"/>
<feOffset dy="-4"/>
<feGaussianBlur stdDeviation="2"/>
<feColorMatrix type="matrix" values="0 0 0 0 0.2 0 0 0 0 0.2 0 0 0 0 0.2 0 0 0 0.3 0"/>
<feBlend mode="normal" in2="effect1_dropShadow" result="effect2_dropShadow"/>
<feBlend mode="normal" in="SourceGraphic" in2="effect2_dropShadow" result="shape"/>
</filter>
<radialGradient id="paint0_radial" cx="0" cy="0" r="1" gradientUnits="userSpaceOnUse" gradientTransform="translate(38.8848 83.6881) rotate(-179.751) scale(44.1173 72.3877)">
<stop offset="0.314" stop-color="#FF9800"/>
<stop offset="0.662" stop-color="#FF6D00"/>
<stop offset="0.972" stop-color="#F44336"/>
</radialGradient>
<radialGradient id="paint1_radial" cx="0" cy="0" r="1" gradientUnits="userSpaceOnUse" gradientTransform="translate(41.3624 39.7864) rotate(90.5787) scale(46.1602 34.7391)">
<stop offset="0.214" stop-color="#FFF176"/>
<stop offset="0.328" stop-color="#FFF27D"/>
<stop offset="0.487" stop-color="#FFF48F"/>
<stop offset="0.672" stop-color="#FFF7AD"/>
<stop offset="0.793" stop-color="#FFF9C4"/>
<stop offset="0.822" stop-color="#FFF8BD" stop-opacity="0.804"/>
<stop offset="0.863" stop-color="#FFF6AB" stop-opacity="0.529"/>
<stop offset="0.91" stop-color="#FFF38D" stop-opacity="0.209"/>
<stop offset="0.941" stop-color="#FFF176" stop-opacity="0"/>
</radialGradient>
</defs>
</svg>
